<svg xmlns="http://www.w3.org/2000/svg" width="512" height="512" viewBox="0 0 72 72" fill="none">
  <circle cx="36" cy="36" r="36" fill="url(#grad-main)"/>
  <defs>
    <linearGradient id="grad-main" x1="0" y1="0" x2="72" y2="72" gradientUnits="userSpaceOnUse">
      <stop offset="0%" stop-color="#00897B"/>
      <stop offset="100%" stop-color="#004D40"/>
    </linearGradient>
  </defs>
  <path d="M36 14 L52 21 L52 36 C52 45.5 44.5 53.5 36 57 C27.5 53.5 20 45.5 20 36 L20 21 Z" fill="rgba(255,255,255,0.12)" stroke="rgba(255,255,255,0.3)" stroke-width="1.5"/>
  <path d="M36 46 C36 46 26 39 26 33 C26 30 28.5 28 31.5 28 C33.5 28 35 29.2 36 30.5 C37 29.2 38.5 28 40.5 28 C43.5 28 46 30 46 33 C46 39 36 46 36 46Z" fill="#F9A825"/>
  <path d="M24 36 L28 36 L30 31 L33 41 L36 34 L38 38 L40 36 L48 36" stroke="white" stroke-width="1.8" stroke-linecap="round" stroke-linejoin="round" opacity="0.9"/>
</svg>
